<svg version="1.0" viewBox="0 0 500 130" xmlns="http://www.w3.org/2000/svg"><g transform="matrix(8.3885 0 0 8.3841 -1733.5 -2735.2)" fill="none" stroke="#000" stroke-linecap="round"><path transform="matrix(.35124 0 0 .35124 143.2 182.22)" d="m216.7 442.87a17.678 17.678 0 0 1-29.027-20.137" stroke-width="8.5411"/><path transform="matrix(-.35124 0 0 -.35124 285.12 485.77)" d="m207.73 449.14a17.678 17.678 0 0 1-19.253-6.2663" stroke-width="8.5411"/><path d="m209.8 337.76 8.982-7.3969" stroke-width="3"/><g stroke-width="8.5411"><path transform="matrix(.35124 0 0 .35124 158.03 182.22)" d="m216.38 443.29a17.678 17.678 0 1 1-0.4548-22.661"/><path transform="matrix(.35124 0 0 .35124 173.06 182.22)" d="m216.38 443.29a17.678 17.678 0 1 1-0.4548-22.661"/><path transform="matrix(.35124 0 0 .35124 187.4 182.22)" d="m217.97 423.52a17.678 17.678 0 1 1-10.805-8.3637"/></g></g></svg>
