<?xml version="1.0" encoding="UTF-8"?>
<!DOCTYPE svg PUBLIC "-//W3C//DTD SVG 1.0//EN" "http://www.w3.org/TR/2001/REC-SVG-20010904/DTD/svg10.dtd">
<!-- Creator: CorelDRAW X8 -->
<svg xmlns="http://www.w3.org/2000/svg" xml:space="preserve" width="159px" height="500px" version="1.0" style="shape-rendering:geometricPrecision; text-rendering:geometricPrecision; image-rendering:optimizeQuality; fill-rule:evenodd; clip-rule:evenodd"
viewBox="0 0 159 500"
 xmlns:xlink="http://www.w3.org/1999/xlink"
 xmlns:dc="http://purl.org/dc/elements/1.1/"
 xmlns:cc="http://creativecommons.org/ns#"
 xmlns:rdf="http://www.w3.org/1999/02/22-rdf-syntax-ns#"
 xmlns:svg="http://www.w3.org/2000/svg"
 xmlns:sodipodi="http://sodipodi.sourceforge.net/DTD/sodipodi-0.dtd"
 xmlns:inkscape="http://www.inkscape.org/namespaces/inkscape"
 sodipodi:docname="el_bg_1.svg"
 inkscape:version="0.92.4 (5da689c313, 2019-01-14)">
 <defs>
  <style type="text/css">
   <![CDATA[
    .fil7 {fill:url(#id0)}
    .fil3 {fill:url(#id1)}
    .fil0 {fill:url(#id2)}
    .fil2 {fill:url(#id3)}
    .fil1 {fill:url(#id4)}
    .fil4 {fill:url(#id5)}
    .fil6 {fill:url(#id6)}
    .fil5 {fill:url(#id7)}
   ]]>
  </style>
  <linearGradient id="id0" gradientUnits="userSpaceOnUse" x1="110.552" y1="15.5624" x2="66.6093" y2="360.167">
   <stop offset="0" style="stop-opacity:1; stop-color:#BD215A"/>
   <stop offset="0.988235" style="stop-opacity:1; stop-color:#7615BC"/>
   <stop offset="1" style="stop-opacity:1; stop-color:#7A0FBD"/>
  </linearGradient>
  <linearGradient id="id1" gradientUnits="userSpaceOnUse" xlink:href="#id0" x1="110.548" y1="15.5719" x2="66.6081" y2="360.166">
  </linearGradient>
  <linearGradient id="id2" gradientUnits="userSpaceOnUse" xlink:href="#id0" x1="110.542" y1="15.5648" x2="66.6034" y2="360.166">
  </linearGradient>
  <linearGradient id="id3" gradientUnits="userSpaceOnUse" xlink:href="#id0" x1="110.552" y1="15.5636" x2="66.6093" y2="360.167">
  </linearGradient>
  <linearGradient id="id4" gradientUnits="userSpaceOnUse" xlink:href="#id0" x1="110.55" y1="15.5601" x2="66.6093" y2="360.167">
  </linearGradient>
  <linearGradient id="id5" gradientUnits="userSpaceOnUse" xlink:href="#id0" x1="110.55" y1="15.5636" x2="66.6093" y2="360.153">
  </linearGradient>
  <linearGradient id="id6" gradientUnits="userSpaceOnUse" xlink:href="#id0" x1="110.549" y1="15.5613" x2="66.6093" y2="360.177">
  </linearGradient>
  <linearGradient id="id7" gradientUnits="userSpaceOnUse" xlink:href="#id0" x1="110.55" y1="15.5624" x2="66.6093" y2="360.178">
  </linearGradient>
 </defs>
 <g id="Слой_x0020_1">
  <metadata id="CorelCorpID_0Corel-Layer"/>
  <g id="_1367592948912">
   <path id="path838" class="fil0" d="M0 240l0 -62c0,-2 1,-4 3,-4l0 0c2,0 3,2 3,4l0 62c0,1 -1,3 -3,3l0 0c-2,0 -3,-2 -3,-3z"/>
   <path id="path836" class="fil1" d="M64 391l0 105c0,2 1,4 3,4l0 0c1,0 3,-2 3,-4l0 -105c0,-2 -2,-4 -3,-4l0 0c-2,0 -3,2 -3,4l0 0z"/>
   <path id="path834" class="fil2" d="M40 306c0,-7 -5,-12 -11,-12 0,0 0,0 0,0 0,0 0,0 0,0 -7,0 -12,5 -12,12 0,0 0,0 0,0 0,6 5,12 12,12 0,0 0,0 0,0 0,0 0,0 0,0 6,0 11,-6 11,-12 0,0 0,0 0,0l0 0z"/>
   <path id="path832" class="fil3" d="M36 333c0,0 0,0 0,0 0,-4 -4,-7 -7,-7 0,0 0,0 0,0 0,0 0,0 0,0 -4,0 -7,3 -7,7 0,0 0,0 0,0 0,4 3,7 7,7 0,0 0,0 0,0 0,0 0,0 0,0 3,0 7,-3 7,-7l0 0z"/>
   <path id="path830" class="fil4" d="M72 34c0,0 0,0 0,0 0,-3 -2,-5 -5,-5 0,0 0,0 0,0 -3,0 -6,2 -6,5 0,0 0,0 0,0 0,0 0,0 0,0 0,3 3,6 6,6 0,0 0,0 0,0 3,0 5,-3 5,-6 0,0 0,0 0,0l0 0z"/>
   <path id="path828" class="fil5" d="M72 59c0,0 0,0 0,0 0,-3 -2,-6 -5,-6 0,0 0,0 0,0 -3,0 -6,3 -6,6 0,0 0,0 0,0 0,0 0,0 0,0 0,3 3,5 6,5 0,0 0,0 0,0 3,0 5,-2 5,-5 0,0 0,0 0,0z"/>
   <path id="path826" class="fil6" d="M72 83c0,0 0,0 0,0 0,-3 -2,-5 -5,-5 0,0 0,0 0,0 -3,0 -6,2 -6,5 0,0 0,0 0,0 0,0 0,0 0,0 0,3 3,6 6,6 0,0 0,0 0,0 3,0 5,-3 5,-6 0,0 0,0 0,0l0 0z"/>
   <path id="rect858" class="fil7" d="M133 119c2,0 3,1 3,3l0 118c0,6 5,11 12,11 6,0 11,-5 11,-11l0 -181c0,-6 -5,-11 -11,-11 -7,0 -12,5 -12,11l0 13c0,1 -1,3 -3,3 -1,0 -3,-2 -3,-3l0 -53c0,-11 -8,-19 -19,-19 -10,0 -19,8 -19,19l0 100c0,3 -2,5 -5,5 -3,0 -5,-2 -5,-5l0 -4c0,-9 -7,-16 -15,-16 -9,0 -16,7 -16,16l0 39c0,3 -3,6 -5,6 -4,0 -6,-3 -6,-6l0 -59c0,-7 -5,-12 -11,-12 -7,0 -12,5 -12,12l0 179c0,7 5,12 12,12 6,0 11,-5 11,-12l0 -47c0,-3 2,-5 6,-5 2,0 5,2 5,5l0 138c0,8 7,15 16,15 8,0 15,-7 15,-15l0 -217c0,-3 2,-5 5,-5 3,0 5,2 5,5l0 58c0,10 9,19 19,19 11,0 19,-9 19,-19l0 -84c0,-2 2,-3 3,-3z"/>
  </g>
 </g>
</svg>
