<?xml version="1.0" encoding="UTF-8" standalone="no"?>
<svg
   xmlns:dc="http://purl.org/dc/elements/1.1/"
   xmlns:cc="http://creativecommons.org/ns#"
   xmlns:rdf="http://www.w3.org/1999/02/22-rdf-syntax-ns#"
   xmlns:svg="http://www.w3.org/2000/svg"
   xmlns="http://www.w3.org/2000/svg"
   xmlns:xlink="http://www.w3.org/1999/xlink"
   xmlns:sodipodi="http://sodipodi.sourceforge.net/DTD/sodipodi-0.dtd"
   xmlns:inkscape="http://www.inkscape.org/namespaces/inkscape"
   id="svg41"
   viewBox="0 0 159 500"
   style="clip-rule:evenodd;fill-rule:evenodd;image-rendering:optimizeQuality;shape-rendering:geometricPrecision;text-rendering:geometricPrecision"
   version="1.1"
   height="500"
   width="159"
   xml:space="preserve"
   sodipodi:docname="el_bg_1.svg"
   inkscape:version="0.92.4 (5da689c313, 2019-01-14)"><sodipodi:namedview
   pagecolor="#ffffff"
   bordercolor="#666666"
   borderopacity="1"
   objecttolerance="10"
   gridtolerance="10"
   guidetolerance="10"
   inkscape:pageopacity="0"
   inkscape:pageshadow="2"
   inkscape:window-width="2560"
   inkscape:window-height="1361"
   id="namedview25"
   showgrid="false"
   inkscape:zoom="0.944"
   inkscape:cx="324.94469"
   inkscape:cy="147.72166"
   inkscape:window-x="1911"
   inkscape:window-y="-9"
   inkscape:window-maximized="1"
   inkscape:current-layer="_1367592948912" /><metadata
   id="metadata45"><rdf:RDF><cc:Work
       rdf:about=""><dc:format>image/svg+xml</dc:format><dc:type
         rdf:resource="http://purl.org/dc/dcmitype/StillImage" /><dc:title></dc:title></cc:Work></rdf:RDF></metadata>
 <defs
   id="defs4"><linearGradient
   id="linearGradient4593"
   inkscape:collect="always"><stop
     id="stop4589"
     offset="0"
     style="stop-color:#bd215a;stop-opacity:1" /><stop
     id="stop4591"
     offset="1"
     style="stop-color:#7a0fbd;stop-opacity:1" /></linearGradient><linearGradient
   inkscape:collect="always"
   id="linearGradient843"><stop
     style="stop-color:#bc2059;stop-opacity:1"
     offset="0"
     id="stop839" /><stop
     style="stop-color:#7b0fba;stop-opacity:1"
     offset="1"
     id="stop841" /></linearGradient>
  <style
   id="style2"
   type="text/css">
   <![CDATA[
    .str0 {stroke:#2B2A29;stroke-width:0.999086}
    .fil0 {fill:none}
   ]]>
  </style>
 <linearGradient
   inkscape:collect="always"
   xlink:href="#linearGradient843"
   id="linearGradient845"
   x1="234.05139"
   y1="29.593224"
   x2="595.23572"
   y2="325.89761"
   gradientUnits="userSpaceOnUse"
   gradientTransform="matrix(-1,0,0,1,1239.887,0)" /><linearGradient
   inkscape:collect="always"
   xlink:href="#linearGradient4593"
   id="linearGradient4587"
   x1="1006.9055"
   y1="27.347071"
   x2="641.79041"
   y2="325.73596"
   gradientUnits="userSpaceOnUse"
   gradientTransform="matrix(0,-1.0007986,0.99730998,0,41.054494,354.49954)" /></defs>
 <g
   transform="matrix(0.40293788,0,0,0.40294077,0.20128172,357.15768)"
   id="Слой_x0020_1">
  <metadata
   id="CorelCorpID_0Corel-Layer" />
  <g
   id="_1367592948912">
   
   
   
   
   
   
   
   
   
   
   
   
   
   
   
   
  <path
   id="rect858"
   style="opacity:1;fill:url(#linearGradient4587);fill-opacity:1;stroke:none;stroke-width:2.47941232;stroke-linecap:square;stroke-linejoin:round;stroke-miterlimit:4;stroke-dasharray:none;stroke-opacity:1;paint-order:normal"
   d="m -0.49953617,-291.84997 v -153.68614 c 0,-4.5634 3.28884997,-8.23718 7.37410997,-8.23718 h 1.04287 c 4.0852502,0 7.3741002,3.67378 7.3741002,8.23718 v 153.68614 c 0,4.56339 -3.28885,8.23717 -7.3741002,8.23717 h -1.04287 c -4.08526,0 -7.37410997,-3.67378 -7.37410997,-8.23717 z M 157.73976,83.396214 V 345.49235 c 0,4.98998 3.1136,9.00719 6.98117,9.00719 h 0.74898 c 3.86756,0 6.98117,-4.01721 6.98117,-9.00719 V 83.396214 c 0,-4.98998 -3.11361,-9.00719 -6.98117,-9.00719 h -0.74898 c -3.86757,0 -6.98117,4.01721 -6.98117,9.00719 z M 99.800434,-127.48407 a 29.315618,29.158407 0 0 0 -29.31562,-29.1584 29.315618,29.158407 0 0 0 -29.31562,29.1584 29.315618,29.158407 0 0 0 29.31562,29.158414 29.315618,29.158407 0 0 0 29.31562,-29.158414 z m -12.1306,67.760084 a 17.185017,17.092859 0 0 0 -17.18502,-17.09286 17.185017,17.092859 0 0 0 -17.18502,17.09286 17.185017,17.092859 0 0 0 17.18502,17.09285 17.185017,17.092859 0 0 0 17.18502,-17.09285 z M 178.14331,-801.00473 a 13.214936,13.144071 0 0 0 -13.21494,-13.1441 13.214936,13.144071 0 0 0 -13.21493,13.1441 13.214936,13.144071 0 0 0 13.21493,13.14411 13.214936,13.144071 0 0 0 13.21494,-13.14411 z m 0,60.04517 a 13.214936,13.144071 0 0 0 -13.21494,-13.1441 13.214936,13.144071 0 0 0 -13.21493,13.1441 13.214936,13.144071 0 0 0 13.21493,13.14411 13.214936,13.144071 0 0 0 13.21494,-13.14411 z m -0.001,61.23286 a 13.214936,13.144071 0 0 0 -13.21494,-13.1441 13.214936,13.144071 0 0 0 -13.21493,13.1441 13.214936,13.144071 0 0 0 13.21493,13.14411 13.214936,13.144071 0 0 0 13.21494,-13.14411 z m 152.13208,88.58466 c 3.98924,0 7.97848,3.0024 7.97848,7.00559 v 292.23318 c 0,15.01198 11.96772,28.02237 27.92468,28.02237 15.95696,0 27.92468,-13.01039 27.92468,-28.02237 v -447.3569 c 0,-15.01199 -11.96772,-28.0224 -27.92468,-28.0224 -15.95696,0 -27.92468,13.01041 -27.92468,28.0224 v 31.02478 c 0,4.00317 -3.98924,7.00555 -7.97848,7.00555 -3.98924,0 -6.98117,-3.00238 -6.98117,-7.00555 v -131.10466 c 0,-26.02072 -21.94082,-47.03757 -47.87088,-47.03757 -25.93006,0 -46.87357,21.01685 -46.87357,47.03757 v 248.19801 c 0,7.00559 -5.98386,12.00958 -12.96503,12.00958 -6.98117,0 -11.96772,-5.00399 -11.96772,-12.00958 v -11.00879 c 0,-21.01677 -17.95158,-38.03034 -38.89509,-38.03034 -20.94351,0 -37.89778,17.01357 -37.89778,38.03034 v 98.07827 c 0,7.00559 -6.98117,14.01118 -13.96234,14.01118 -7.97848,0 -13.962336,-7.00559 -13.962336,-14.01118 V -651.1899 c 0,-16.01279 -12.96503,-28.0224 -27.92468,-28.0224 -15.95696,0 -28.92199,12.00961 -28.92199,28.0224 v 445.35531 c 0,16.01278 12.96503,28.02236 28.92199,28.02236 14.95965,0 27.92468,-12.00958 27.92468,-28.02236 v -116.09263 c 0,-8.00639 5.983856,-14.01118 13.962336,-14.01118 6.98117,0 13.96234,6.00479 13.96234,14.01118 V 18.344304 c 0,22.01757 16.95427,39.03115 37.89778,39.03115 20.94351,0 38.89509,-17.01358 38.89509,-39.03115 V -520.08534 c 0,-7.00559 4.98655,-12.00959 11.96772,-12.00959 6.98117,0 12.96503,5.004 12.96503,12.00959 v 144.115 c 0,26.02076 20.94351,47.03753 46.87357,47.03753 25.93006,0 47.87088,-21.01677 47.87088,-47.03753 v -208.16611 c 0,-4.00319 2.99193,-7.00559 6.98117,-7.00559 z"
   inkscape:connector-curvature="0" /></g>
 </g>
</svg>