<?xml version="1.0" encoding="UTF-8" standalone="no"?>
<svg
   xmlns:dc="http://purl.org/dc/elements/1.1/"
   xmlns:cc="http://creativecommons.org/ns#"
   xmlns:rdf="http://www.w3.org/1999/02/22-rdf-syntax-ns#"
   xmlns:svg="http://www.w3.org/2000/svg"
   xmlns="http://www.w3.org/2000/svg"
   xmlns:xlink="http://www.w3.org/1999/xlink"
   id="svg863"
   viewBox="0 0 115 500"
   style="shape-rendering:geometricPrecision; text-rendering:geometricPrecision; image-rendering:optimizeQuality; fill-rule:evenodd; clip-rule:evenodd"
   version="1.1"
   height="500px"
   width="115px"
   xml:space="preserve"><metadata
   id="metadata867"><rdf:RDF><cc:Work
       rdf:about=""><dc:format>image/svg+xml</dc:format><dc:type
         rdf:resource="http://purl.org/dc/dcmitype/StillImage" /><dc:title></dc:title></cc:Work></rdf:RDF></metadata>
 <defs
   id="defs857">
  <style
   id="style850"
   type="text/css">
   <![CDATA[
    .fil0 {fill:url(#id0)}
   ]]>
  </style>
  <linearGradient
   y2="134.001"
   x2="61.0008"
   y1="418.001"
   x1="89.0002"
   gradientUnits="userSpaceOnUse"
   id="id0">
   <stop
   id="stop852"
   style="stop-opacity:1; stop-color:#B52059"
   offset="0" />
   <stop
   id="stop854"
   style="stop-opacity:0.92549; stop-color:#271352"
   offset="1" />
  </linearGradient>
 <linearGradient
   gradientUnits="userSpaceOnUse"
   y2="250"
   x2="115"
   y1="250"
   x1="0"
   id="linearGradient1422"
   xlink:href="#id0" /><linearGradient
   y2="429.02386"
   x2="88.783119"
   y1="136.89288"
   x1="62.171467"
   gradientUnits="userSpaceOnUse"
   id="linearGradient1424"
   xlink:href="#id0" /><linearGradient
   y2="139.14005"
   x2="61.06813"
   y1="429.02386"
   x1="87.639297"
   gradientUnits="userSpaceOnUse"
   id="linearGradient1426"
   xlink:href="#id0" /></defs>
 <g
   style="fill-opacity:1.0;fill:url(#linearGradient1422)"
   id="Слой_x0020_1">
  <metadata
   style="fill-opacity:1.0;fill:url(#linearGradient1422)"
   id="CorelCorpID_0Corel-Layer" />
  <g
   style="fill-opacity:1;fill:url(#linearGradient1424)"
   id="_2617980988720">
   <path
   style="fill-opacity:1;fill:url(#linearGradient1426)"
   d="m 52,178 v -12 c 0,-6 5,-11 10,-11 h 1 c 5,0 10,5 10,11 v 12 c 0,5 -5,10 -10,10 h -1 c -5,0 -10,-5 -10,-10 z m 21,206 c 0,5 -5,10 -10,10 -6,0 -11,-5 -11,-10 0,-6 5,-11 11,-11 5,0 10,5 10,11 z m 0,-247 c 0,6 -5,10 -10,10 -6,0 -11,-4 -11,-10 0,-6 5,-11 11,-11 5,0 10,5 10,11 z M 32,262 c 0,0 0,0 0,0 3,0 6,3 6,6 0,0 0,0 0,0 0,4 -3,7 -6,7 0,0 0,0 0,0 -3,0 -6,-3 -6,-7 0,0 0,0 0,0 0,-3 3,-6 6,-6 z m 0,-15 c 0,0 0,0 0,0 3,0 6,3 6,6 0,0 0,0 0,0 0,4 -3,6 -6,6 0,0 0,0 0,0 -3,0 -6,-2 -6,-6 0,0 0,0 0,0 0,-3 3,-6 6,-6 z m 0,-15 c 0,0 0,0 0,0 3,0 6,3 6,6 0,0 0,0 0,0 0,3 -3,6 -6,6 0,0 0,0 0,0 -3,0 -6,-3 -6,-6 0,0 0,0 0,0 0,-3 3,-6 6,-6 z m 35,210 c 0,2 -2,4 -4,4 -3,0 -4,-2 -4,-4 0,0 0,0 0,0 0,-2 1,-4 4,-4 2,0 4,2 4,4 0,0 0,0 0,0 z m 0,-17 c 0,0 0,0 0,0 0,2 -2,4 -4,4 -3,0 -4,-2 -4,-4 0,0 0,0 0,0 0,-3 1,-4 4,-4 2,0 4,1 4,4 z m 0,-18 c 0,2 -2,4 -4,4 -3,0 -4,-2 -4,-4 0,0 0,0 0,0 0,-2 1,-4 4,-4 2,0 4,2 4,4 0,0 0,0 0,0 z m -7,91 v -45 c 0,-2 1,-3 3,-3 1,0 2,1 2,3 v 45 c 0,1 -1,2 -2,2 -2,0 -3,-1 -3,-2 z m 37,-37 c 0,4 -4,8 -8,8 0,0 0,0 0,0 -5,0 -9,-4 -9,-8 0,0 0,0 0,0 0,-5 4,-9 9,-9 0,0 0,0 0,0 4,0 8,4 8,9 0,0 0,0 0,0 z m -3,19 c 0,3 -3,5 -5,5 -3,0 -5,-2 -5,-5 0,-3 2,-5 5,-5 2,0 5,2 5,5 z M 93,230 c 0,0 0,0 0,0 0,2 -2,4 -4,4 -2,0 -4,-2 -4,-4 0,0 0,0 0,0 0,-3 2,-4 4,-4 2,0 4,1 4,4 z m 0,-18 c 0,0 0,0 0,0 0,2 -2,4 -4,4 -2,0 -4,-2 -4,-4 0,0 0,0 0,0 0,-2 2,-4 4,-4 2,0 4,2 4,4 z m 0,-17 c 0,2 -2,4 -4,4 -2,0 -4,-2 -4,-4 0,0 0,0 0,0 0,-3 2,-4 4,-4 2,0 4,1 4,4 0,0 0,0 0,0 z m 0,-17 c 0,2 -2,4 -4,4 -2,0 -4,-2 -4,-4 0,0 0,0 0,0 0,-2 2,-4 4,-4 2,0 4,2 4,4 0,0 0,0 0,0 z m 10,-1 c 0,-3 3,-6 6,-6 3,0 6,3 6,6 v 192 c 0,3 -3,6 -6,6 -3,0 -6,-3 -6,-6 v -10 c 0,-2 -2,-3 -3,-3 -2,0 -4,1 -4,3 v 71 c 0,4 -3,8 -7,8 -5,0 -8,-4 -8,-8 V 330 c 0,-2 -2,-4 -4,-4 -2,0 -4,2 -4,4 v 27 c 0,6 -5,11 -10,11 -6,0 -11,-5 -11,-11 v -3 c 0,-2 -1,-4 -3,-4 -2,0 -4,2 -4,4 v 54 c 0,7 -6,13 -13,13 -7,0 -13,-6 -13,-13 v -38 c 0,-1 -1,-2 -2,-2 -1,0 -2,1 -2,2 v 9 c 0,4 -3,7 -8,7 -4,0 -7,-3 -7,-7 V 225 c 0,-4 3,-7 7,-7 5,0 8,3 8,7 v 92 c 0,1 1,2 2,2 1,0 2,-1 2,-2 v -22 c 0,-7 6,-13 13,-13 7,0 13,6 13,13 v 16 c 0,2 2,4 4,4 2,0 3,-2 3,-4 V 209 c 0,-6 5,-10 11,-10 5,0 10,4 10,10 v 70 c 0,2 2,4 4,4 2,0 4,-2 4,-4 v -32 c 0,-5 3,-8 8,-8 4,0 7,3 7,8 v 5 c 0,2 2,3 4,3 1,0 3,-1 3,-3 z M 61,115 V 2 c 0,-1 0,-2 2,-2 v 0 c 1,0 2,1 2,2 v 113 c 0,1 -1,1 -2,1 v 0 c -2,0 -2,0 -2,-1 z m 46,49 V 68 c 0,-1 1,-2 2,-2 v 0 c 1,0 2,1 2,2 v 96 c 0,1 -1,2 -2,2 v 0 c -1,0 -2,-1 -2,-2 z"
   id="rect882-9-2" />
  </g>
 </g>
</svg>