<?xml version="1.0" encoding="UTF-8" standalone="no"?>
<svg xmlns:dc="http://purl.org/dc/elements/1.1/" xmlns:cc="http://creativecommons.org/ns#" xmlns:rdf="http://www.w3.org/1999/02/22-rdf-syntax-ns#" xmlns:svg="http://www.w3.org/2000/svg" xmlns="http://www.w3.org/2000/svg" xmlns:xlink="http://www.w3.org/1999/xlink" xml:space="preserve" width="238" height="500" version="1.1" style="clip-rule:evenodd;fill-rule:evenodd;image-rendering:optimizeQuality;shape-rendering:geometricPrecision;text-rendering:geometricPrecision" viewBox="0 0 238 500" id="svg71">
    <metadata id="metadata75">
        <rdf:RDF>
            <cc:Work rdf:about="">
                <dc:format>
                    image/svg+xml
                </dc:format>
                <dc:type rdf:resource="http://purl.org/dc/dcmitype/StillImage"/>
                <dc:title/>
            </cc:Work>
        </rdf:RDF>
    </metadata>
    <defs id="defs4">
        <linearGradient id="linearGradient4806">
            <stop style="stop-color:#540bb7;stop-opacity:1" offset="0" id="stop4802"/>
            <stop style="stop-color:#130b53;stop-opacity:1" offset="1" id="stop4804"/>
        </linearGradient>
        <linearGradient id="linearGradient851">
            <stop id="stop847" offset="0" style="stop-color:#f88d06;stop-opacity:1"/>
            <stop id="stop849" offset="1" style="stop-color:#f88d06;stop-opacity:0"/>
        </linearGradient>
        <linearGradient gradientUnits="userSpaceOnUse" y2="336.4631" x2="1417.7572" y1="336.4631" x1="-0.4994925" id="linearGradient853" xlink:href="#linearGradient851"/>
        <linearGradient y2="336.4631" x2="1417.7572" y1="336.4631" x1="-0.4994925" gradientUnits="userSpaceOnUse" id="linearGradient990" xlink:href="#linearGradient851"/>
        <linearGradient gradientUnits="userSpaceOnUse" y2="336.4631" x2="1417.2577" y1="336.4631" x1="0" id="linearGradient4800" xlink:href="#linearGradient4806"/>
        <linearGradient y2="336.4631" x2="1417.2577" y1="333.6315" x1="198.55606" gradientUnits="userSpaceOnUse" id="linearGradient4808" xlink:href="#linearGradient4806"/>
        <linearGradient gradientTransform="matrix(0,-0.99827243,1.0017306,0,1.6610914e-5,672.92618)" y2="336.4631" x2="1417.2577" y1="336.4631" x1="0" gradientUnits="userSpaceOnUse" id="linearGradient4850" xlink:href="#linearGradient4806"/>
        <style type="text/css" id="style2">
            <![CDATA[.str0{stroke:#2B2A29;stroke-width:0.998985}.fil0{fill:none}]]>
        </style>
    </defs>
    <g id="Слой_x0020_1" style="fill:url(#linearGradient853);fill-opacity:1;stroke:#000;stroke-opacity:1" transform="matrix(0.35254528,0,0,0.35315538,0.17624333,262.17625)">
        <metadata id="CorelCorpID_0Corel-Layer"/>
        <g id="_1367692827376" style="fill:url(#linearGradient990);fill-opacity:1;stroke:#000;stroke-opacity:1">
            <g style="fill:url(#linearGradient4800);fill-opacity:1;stroke:none" id="g4784">
                <path d="m 453.78396,-444.14063 c 0,-12.97754 11.01904,-22.96027 24.04154,-22.96027 12.02076,0 23.0398,9.98273 23.0398,22.96027 v 627.91336 c 0,11.97927 -11.01904,22.96027 -23.0398,22.96027 -13.0225,0 -24.04154,-10.981 -24.04154,-22.96027 V 1.0888753 c 0,-7.98618 -6.01038,-13.9758203 -14.02422,-13.9758203 -7.01212,0 -14.02423,5.9896403 -14.02423,13.9758203 V 272.61898 c 0,29.94817 -24.04154,53.90671 -54.09345,53.90671 -30.05192,0 -54.09345,-23.95854 -54.09345,-53.90671 V 2.0871453 c 0,-7.98618 -7.01212,-14.9740903 -16.02769,-14.9740903 -8.01385,0 -15.02596,6.9879103 -15.02596,14.9740903 V 23.050865 c 0,34.93954 -28.04845,62.89117 -63.10902,62.89117 -35.06057,0 -63.10903,-27.95163 -63.10903,-62.89117 v -74.87043 c 0,-6.98791 -6.01038,-12.97754 -13.0225,-12.97754 -8.01384,0 -13.02249,5.98963 -13.02249,12.97754 V 403.39267 c 0,9.98272 -8.01385,16.97063 -18.03115,16.97063 -9.01558,0 -17.029423,-6.98791 -17.029423,-16.97063 v -166.7115 c 0,-6.9879 -6.01039,-12.97754 -13.0225,-12.97754 -7.01211,0 -13.0225,5.98964 -13.0225,12.97754 v 26.95336 c 0,19.96545 -17.02942,35.93781 -37.06403,35.93781 -20.03461,0 -36.062300389086,-15.97236 -36.062300389086,-35.93781 V 1.0888753 C 1.6610914e-5,-18.876575 16.027707,-34.848935 36.062317,-34.848935 c 20.03461,0 37.06403,15.97236 37.06403,35.9378103 V 51.002495 c 0,6.98791 6.01039,12.97754 13.0225,12.97754 7.01211,0 13.0225,-5.98963 13.0225,-12.97754 V -351.30129 c 0,-8.98446 8.013843,-16.97064 17.029423,-16.97064 10.0173,0 18.03115,7.98618 18.03115,16.97064 v 127.77887 c 0,6.98791 5.00865,12.97754 13.02249,12.97754 7.01212,0 13.0225,-5.98963 13.0225,-12.97754 v -315.45409 c 0,-34.93953 28.04846,-62.89116 63.10903,-62.89116 35.06057,0 63.10902,27.95163 63.10902,62.89116 v 446.227775 c 0,8.98445 7.01211,15.97236 15.02596,15.97236 9.01557,0 16.02769,-6.98791 16.02769,-15.97236 V -246.48268 c 0,-28.94991 24.04153,-53.90672 54.09345,-53.90672 30.05191,0 54.09345,24.95681 54.09345,53.90672 v 24.95681 c 0,6.9879 7.01211,13.97581 14.02423,13.97581 8.01384,0 14.02422,-6.98791 14.02422,-13.97581 z m 165.28555,48.91535 v -229.64758 c 0,-14.93216 12.06283,-26.95335 27.04673,-26.95335 h 0.9278 c 14.9839,0 27.0467,12.02119 27.0467,26.95335 v 229.64758 c 0,14.93216 -12.0628,26.95335 -27.0467,26.95335 h -0.9278 c -14.9839,0 -27.04673,-12.02119 -27.04673,-26.95335 z m -296.51225,21.38699 c 0,-26.86461 20.10473,-48.49208 45.07788,-48.49208 h 7.77112 c 24.97314,0 45.07788,21.62747 45.07788,48.49208 0,26.86461 -20.10474,48.49208 -45.07788,48.49208 h -7.77112 c -24.97315,0 -45.07788,-21.62747 -45.07788,-48.49208 z m 131.2267,-154.15722 v -0.31336 c 0,-12.71999 9.82898,-22.96026 22.03808,-22.96026 h 2.6072 c 12.20909,0 22.03807,10.24027 22.03807,22.96026 v 0.31336 c 0,12.71999 -9.82898,22.96027 -22.03807,22.96027 h -2.6072 c -12.2091,0 -22.03808,-10.24028 -22.03808,-22.96027 z m 0,-94.83588 v -0.31336 c 0,-12.71999 9.82898,-22.96026 22.03808,-22.96026 h 2.6072 c 12.20909,0 22.03807,10.24027 22.03807,22.96026 v 0.31336 c 0,12.71999 -9.82898,22.96026 -22.03807,22.96026 h -2.6072 c -12.2091,0 -22.03808,-10.24027 -22.03808,-22.96026 z m 0,-93.83761 v -0.31336 c 0,-12.71998 9.82898,-22.96026 22.03808,-22.96026 h 2.6072 c 12.20909,0 22.03807,10.24028 22.03807,22.96026 v 0.31336 c 0,12.71999 -9.82898,22.96027 -22.03807,22.96027 h -2.6072 c -12.2091,0 -22.03808,-10.24028 -22.03808,-22.96027 z m -259.44821,63.3328 c 0,-15.79357 12.50961,-28.50827 28.04845,-28.50827 h 0.70572 c 15.53885,0 28.04846,12.7147 28.04846,28.50827 0,15.79357 -12.50961,28.50826 -28.04846,28.50826 h -0.70572 c -15.53884,0 -28.04845,-12.71469 -28.04845,-28.50826 z m 12.02077,-69.32243 v -4.25035 c 0,-8.29564 7.59512,-14.97409 17.02942,-14.97409 h 0.47211 c 9.4343,0 17.02942,6.67845 17.02942,14.97409 v 4.25035 c 0,8.29564 -7.59512,14.97408 -17.02942,14.97408 h -0.47211 c -9.4343,0 -17.02942,-6.67844 -17.02942,-14.97408 z M 474.82031,585.07825 v -339.4236 c 0,-3.8713 2.96915,-6.9879 6.6573,-6.9879 3.68814,0 6.6573,3.1166 6.6573,6.9879 v 339.4236 c 0,3.8713 -2.96916,6.98791 -6.6573,6.98791 -3.68815,0 -6.6573,-3.11661 -6.6573,-6.98791 z M 371.64206,531.17154 a 14.024228,13.975814 0 0 1 14.02423,13.97581 14.024228,13.975814 0 0 1 -14.02423,13.97582 14.024228,13.975814 0 0 1 -14.02423,-13.97582 14.024228,13.975814 0 0 1 14.02423,-13.97581 z m 0,55.90326 a 14.024228,13.975814 0 0 1 14.02423,13.97581 14.024228,13.975814 0 0 1 -14.02423,13.97581 14.024228,13.975814 0 0 1 -14.02423,-13.97581 14.024228,13.975814 0 0 1 14.02423,-13.97581 z m 0,-112.80479 a 14.024228,13.975814 0 0 1 14.02423,13.97582 14.024228,13.975814 0 0 1 -14.02423,13.97581 14.024228,13.975814 0 0 1 -14.02423,-13.97581 14.024228,13.975814 0 0 1 14.02423,-13.97582 z m 0,-58.89807 a 14.024228,13.975814 0 0 1 14.02423,13.97581 14.024228,13.975814 0 0 1 -14.02423,13.97582 14.024228,13.975814 0 0 1 -14.02423,-13.97582 14.024228,13.975814 0 0 1 14.02423,-13.97581 z m 0,-58.89808 a 14.024228,13.975814 0 0 1 14.02423,13.97582 14.024228,13.975814 0 0 1 -14.02423,13.97581 14.024228,13.975814 0 0 1 -14.02423,-13.97581 14.024228,13.975814 0 0 1 14.02423,-13.97582 z m 0,288.50072 a 14.024228,13.975814 0 0 1 14.02423,13.9758 14.024228,13.975814 0 0 1 -14.02423,13.9758 14.024228,13.975814 0 0 1 -14.02423,-13.9758 14.024228,13.975814 0 0 1 14.02423,-13.9758 z M 223.38594,296.57752 a 21.036342,20.963721 0 0 1 21.03634,20.96372 21.036342,20.963721 0 0 1 -21.03634,20.96372 21.036342,20.963721 0 0 1 -21.03635,-20.96372 21.036342,20.963721 0 0 1 21.03635,-20.96372 z m 0,-89.84452 a 21.036342,20.963721 0 0 1 21.03634,20.96372 21.036342,20.963721 0 0 1 -21.03634,20.96372 21.036342,20.963721 0 0 1 -21.03635,-20.96372 21.036342,20.963721 0 0 1 21.03635,-20.96372 z m 0,-98.82897 a 21.036342,20.963721 0 0 1 21.03634,20.96372 21.036342,20.963721 0 0 1 -21.03634,20.96372 21.036342,20.963721 0 0 1 -21.03635,-20.96372 21.036342,20.963721 0 0 1 21.03635,-20.96372 z M 30.051937,-61.802285 V -273.67064 c 0,-2.21217 2.96915,-3.99309 6.6573,-3.99309 3.68814,0 6.6573,1.78092 6.6573,3.99309 v 211.868355 c 0,2.21217 -2.96916,3.99309 -6.6573,3.99309 -3.68815,0 -6.6573,-1.78092 -6.6573,-3.99309 z" style="fill:url(#linearGradient4850);fill-opacity:1;stroke:none;stroke-width:.99898499;stroke-opacity:1" id="rect51"/>
            </g>
        </g>
    </g>
</svg>
