<?xml version="1.0" encoding="UTF-8" standalone="no"?>
<svg
   xmlns:dc="http://purl.org/dc/elements/1.1/"
   xmlns:cc="http://creativecommons.org/ns#"
   xmlns:rdf="http://www.w3.org/1999/02/22-rdf-syntax-ns#"
   xmlns:svg="http://www.w3.org/2000/svg"
   xmlns="http://www.w3.org/2000/svg"
   id="svg18"
   version="1.1"
   width="446"
   viewBox="-28 0 334.49999 375"
   height="500">
  <metadata
     id="metadata24">
    <rdf:RDF>
      <cc:Work
         rdf:about="">
        <dc:format>image/svg+xml</dc:format>
        <dc:type
           rdf:resource="http://purl.org/dc/dcmitype/StillImage" />
        <dc:title></dc:title>
      </cc:Work>
    </rdf:RDF>
  </metadata>
  <defs
     id="defs22" />
  <g
     transform="matrix(0.73179815,0,0,0.73242255,-27.999681,1.0979085e-6)"
     id="g842">
    <path
       d="m 452.41406,369.54297 c -0.40234,-0.25391 -40.125,-25.84766 -59.41406,-80.16406 -4.33203,-12.19922 -23.33984,-5.46875 -19,6.75 16.29687,45.89843 45.16406,73.1875 59.37891,84.46484 L 406.66016,421.625 c -11.19141,-2.22266 -34.0625,-5.42578 -61.65235,-1.96094 -33.18359,4.16797 -79.26562,19.08985 -116.45703,65.51563 C 191.35938,438.75391 145.27734,423.83203 112.08984,419.66406 84.5,416.20312 61.628906,419.40234 50.4375,421.625 L 23.730469,380.60156 c 18.050781,-14.28125 59.625,-54.23047 69.148437,-125.125 C 97.9375,217.80859 86.175781,178.53125 58.867188,141.89453 46.0625,124.71875 32.742188,111.94141 24.421875,104.67969 L 53.070312,71.410156 C 104.45703,85.375 140.88672,70.261719 162.69141,54.707031 180.08984,42.296875 190.91797,27.839844 195.90625,20.164062 h 65.28516 c 4.98828,7.675782 15.8164,22.132813 33.21484,34.542969 15.73828,11.226563 39.09375,22.226563 70.19922,22.222657 11.98828,0 25.1289,-1.632813 39.42187,-5.519532 l 28.63672,33.253904 c -17.55469,15.27344 -57.15625,54.83985 -67.2539,108.4336 -2.39844,12.72265 17.41406,16.48046 19.8164,3.73828 11.32422,-60.08985 67.27344,-102.41016 67.82813,-102.82422 4.64062,-3.44531 5.40234,-10.30078 1.63281,-14.675782 l -39.60938,-46 C 412.45312,50.289062 408.27344,49.09375 404.4375,50.289062 367.12109,61.921875 334.26562,58.042969 306.78516,38.761719 285.91016,24.117188 275.89844,5.5625 275.8125,5.40625 274.07422,2.082031 270.63281,0 266.88281,0 h -76.66797 c -3.72656,0 -7.16797,2.085938 -8.91797,5.378906 -0.0977,0.183594 -10.10937,18.738282 -30.98437,33.382813 -27.48047,19.277343 -60.335938,23.15625 -97.652344,11.527343 -3.835937,-1.195312 -8.015625,0 -10.640625,3.046876 l -39.609375,46 c -3.765625,4.375002 -3,11.222652 1.621094,14.667972 0.203125,0.15234 20.464844,15.39062 38.992188,40.38671 24.203124,32.65235 34.25,65.75782 29.867187,98.40625 -4.476563,33.3125 -17.257813,63.03907 -37.988281,88.35938 -15.582032,19.03125 -30.070313,28.29687 -30.195313,28.375 -4.722656,2.94922 -6.144531,9.38672 -3.105469,14.05078 l 35.777344,54.94531 c 2.40625,3.69141 6.945313,5.38672 11.1875,4.19922 0.269532,-0.0742 27.199219,-7.45312 61.777344,-2.95703 45.66016,5.94141 82.64844,28.82422 109.92969,68.01563 3.90625,5.60546 12.625,5.63281 16.55078,0 27.28515,-39.19141 64.26953,-62.07422 109.93359,-68.01563 34.57813,-4.49609 61.50781,2.88281 61.75781,2.95313 4.25,1.20703 8.79297,-0.49219 11.20313,-4.19532 l 35.77734,-54.94531 c 3.03125,-4.65625 1.60547,-11.07812 -3.08203,-14.03906 0.42969,0.26953 2.00781,1.26953 0,0 0.3086,0.19531 0.61328,0.39062 0.92188,0.58203 -3.0625,-1.93359 2.16015,1.36719 -0.92188,-0.58203 -0.40234,-0.25391 2.27735,1.4414 0,0 z m 0,0"
       id="path2" />
    <path
       d="m 374.67187,243.63672 c -5.48437,0 -10.08593,4.59765 -10.08203,10.08203 0,5.48828 4.60157,10.07422 10.08203,10.07422 5.32422,0 9.82813,-4.32031 10.0625,-9.63281 0.25,-5.65235 -4.39453,-10.52344 -10.0625,-10.52344 z m 0,0"
       id="path4" />
    <path
       d="m 158.12891,273.44531 c 1.49609,-9.65234 2.25781,-19.49219 2.25781,-29.24609 0,-7.89063 -0.5,-15.89063 -1.47656,-23.78516 -1.59766,-12.84765 -21.60938,-10.38672 -20.01563,2.48047 0.87891,7.07422 1.32422,14.24219 1.32422,21.30469 0,8.71875 -0.67969,17.51953 -2.01563,26.15625 -1.98828,12.78906 17.92188,16.01172 19.92579,3.08984 1.49609,-9.65234 -0.77344,4.98047 0,0 z m 0,0"
       id="path6" />
    <path
       d="m 111.67578,359.46484 c 12.81641,8.26563 21.85547,-15.84375 25.94531,-23.83593 4.0586,-7.9336 17.84375,-28.67969 3.73047,-34.26172 -12.73828,-5.03906 -16.8164,15.36328 -20.61718,22.99609 -4.20313,8.44922 -21.406255,27.14063 -9.0586,35.10156 1.69141,1.08985 -4.67969,-3.01953 0,0 z m 0,0"
       id="path8" />
    <path
       d="m 130.21094,185.73828 c 4.23047,12.22656 23.30078,5.66406 19.05859,-6.58984 -10.12109,-29.25391 -23.54687,-47.02735 -24.11719,-47.76953 -7.83984,-10.27344 -23.85156,1.90625 -16.03906,12.22265 0.1211,0.15625 12.10547,16.15235 21.09766,42.13672 1.44531,4.17578 -8.99219,-25.98437 0,0 z m 0,0"
       id="path10" />
    <path
       d="m 326.84766,356.45312 c 7.05468,10.94532 23.95312,-0.0586 16.94921,-10.92578 -8.07031,-12.51953 -14.68359,-25.42578 -19.66015,-38.36718 -4.64453,-12.08594 -23.47266,-4.86719 -18.82031,7.23437 5.46875,14.23047 12.71093,28.38281 21.53125,42.05859 1.92578,2.98829 -8.82032,-13.67578 0,0 7.05468,10.94532 -8.82032,-13.67578 0,0 z m 0,0"
       id="path12" />
    <path
       d="m 309.42187,191.97266 c 5.12891,1.77343 11.05469,-1.10938 12.82813,-6.23438 8.99219,-25.98437 20.97656,-41.98047 21.09766,-42.13672 7.82812,-10.29687 -8.17969,-22.51562 -16.04297,-12.22265 -0.56641,0.74218 -13.99219,18.51562 -24.11328,47.76953 -1.82032,5.26172 0.96875,11.0039 6.23047,12.82422 1.09375,0.3789 -5.26172,-1.82032 0,0 5.1289,1.77343 -5.26172,-1.82032 -10e-6,0 z m 0,0"
       id="path14" />
    <path
       d="m 293.55469,220.41406 c -0.98047,7.89453 -1.47657,15.89844 -1.47657,23.78516 0,9.7539 0.75782,19.59375 2.25391,29.24609 2.00391,12.91797 21.91016,9.6836 19.92969,-3.08984 -1.33985,-8.63281 -2.01953,-17.43359 -2.01953,-26.15625 0,-7.05859 0.44531,-14.22656 1.32422,-21.30078 0.6875,-5.52735 -3.23829,-10.5625 -8.76172,-11.25 -5.53125,-0.6836 -10.56641,3.23828 -11.25,8.76562 -0.98047,7.89453 0.68359,-5.52734 0,0 z m 0,0"
       id="path16" />
  </g>
</svg>
