<?xml version="1.0" encoding="UTF-8" standalone="no"?>
<svg
   xmlns:dc="http://purl.org/dc/elements/1.1/"
   xmlns:cc="http://creativecommons.org/ns#"
   xmlns:rdf="http://www.w3.org/1999/02/22-rdf-syntax-ns#"
   xmlns:svg="http://www.w3.org/2000/svg"
   xmlns="http://www.w3.org/2000/svg"
   id="svg18"
   version="1.1"
   width="500"
   viewBox="0 -27 500 447"
   height="447">
  <metadata
     id="metadata24">
    <rdf:RDF>
      <cc:Work
         rdf:about="">
        <dc:format>image/svg+xml</dc:format>
        <dc:type
           rdf:resource="http://purl.org/dc/dcmitype/StillImage" />
        <dc:title></dc:title>
      </cc:Work>
    </rdf:RDF>
  </metadata>
  <defs
     id="defs22" />
  <g
     transform="matrix(0.9765625,0,0,0.97623232,0,-26.999999)"
     style="fill:#000000;fill-opacity:1;stroke:none"
     id="g16">
    <path
       style="fill:#000000;fill-opacity:1;stroke:none"
       id="path2"
       data-old_color="#000000"
       class="active-path"
       data-original="#000000"
       d="M 478,79.472656 H 457.98047 L 458,43.683594 C 458.01172,19.65625 438.47656,0.0976562 414.44531,0.0859375 L 262.50781,0 c -0.008,0 -0.0117,0 -0.0195,0 -8.64844,0 -16.78125,3.367188 -22.89844,9.484375 L 12.761719,236.3125 C 4.53125,244.54297 0,255.48437 0,267.125 c 0,11.64062 4.53125,22.58203 12.761719,30.8125 L 159.96484,445.14062 c 8.4961,8.4961 19.65625,12.74219 30.8125,12.74219 11.16016,0 22.32032,-4.24609 30.81641,-12.74219 l 142.8125,-142.8125 c 3.90625,-3.90625 3.90625,-10.23828 0,-14.14062 -3.90625,-3.90625 -10.23828,-3.90625 -14.14453,0 L 207.44922,431 c -9.19141,9.19141 -24.14844,9.19141 -33.33985,0 L 26.90625,283.79687 C 22.453125,279.34375 20,273.42187 20,267.125 c 0,-6.29688 2.453125,-12.21875 6.90625,-16.67188 L 253.73047,23.628906 C 256.07031,21.289062 259.17969,20 262.48828,20 h 0.008 l 151.9375,0.08594 c 13,0.0039 23.57422,10.589843 23.56641,23.589843 l -0.0469,83.796877 h -45.04296 c -3.87891,0 -7.39063,-1.58594 -9.92969,-4.14063 4.18359,-1.79297 8.10547,-4.38281 11.51562,-7.79297 14.3711,-14.375 14.3711,-37.757808 0,-52.128902 -14.375,-14.375 -37.75781,-14.375 -52.13281,0 -14.37109,14.371094 -14.37109,37.753902 0,52.128902 5.32813,5.32813 11.89844,8.67578 18.78516,10.05469 4.89453,12.77734 17.28125,21.87891 31.76172,21.87891 h 45.03125 l -0.0274,47.9375 c 0,3.30859 -1.28906,6.41406 -3.6289,8.75 l -27.45313,27.45703 c -3.90625,3.90625 -3.90625,10.23828 0,14.14453 3.90235,3.90234 10.23438,3.90234 14.14063,0 l 27.45703,-27.45703 c 6.10937,-6.11328 9.48047,-14.23828 9.48437,-22.88282 l 0.0274,-47.94921 H 478 c 18.74609,0 34,-15.25 34,-34 0,-18.746096 -15.25391,-34.000002 -34,-34.000002 z M 356.50781,77.550781 c 3.28906,-3.289062 7.60547,-4.929687 11.92578,-4.929687 4.31641,0 8.63282,1.644531 11.92188,4.929687 1.03906,1.042969 1.89844,2.195313 2.60937,3.410157 -10.97656,3.363281 -19.60156,12.148437 -22.7539,23.218752 -1.32422,-0.73828 -2.57813,-1.65625 -3.70313,-2.78125 -6.57422,-6.578128 -6.57422,-17.27344 0,-23.847659 z M 478,127.47266 h -20.04688 l 0.0156,-28.000004 H 478 c 7.71875,0 14,6.281254 14,14.000004 0,7.71875 -6.28125,14 -14,14 z m 0,0" />
    <path
       style="fill:#000000;fill-opacity:1;stroke:none"
       id="path4"
       data-old_color="#000000"
       class="active-path"
       data-original="#000000"
       d="m 161.41406,252.30469 c 1.23047,4.42578 5.25,7.32031 9.625,7.32031 0.89063,0 1.79297,-0.11719 2.6875,-0.36719 l 102.65625,-28.57422 c 5.32031,-1.48047 8.4336,-6.99609 6.95313,-12.3164 -1.48047,-5.31641 -6.99219,-8.42969 -12.31641,-6.94922 l -102.65625,28.57031 c -5.31641,1.48438 -8.42969,6.99609 -6.94922,12.31641 z m 0,0" />
    <path
       style="fill:#000000;fill-opacity:1;stroke:none"
       id="path6"
       data-old_color="#000000"
       class="active-path"
       data-original="#000000"
       d="m 206.60156,265.5 c -5.57031,5.57031 -8.63672,12.97266 -8.63672,20.85156 0,7.875 3.06641,15.27735 8.63672,20.84766 5.75,5.74609 13.29688,8.62109 20.84766,8.62109 7.55078,0 15.10156,-2.875 20.85156,-8.62109 11.49609,-11.4961 11.49609,-30.20313 0,-41.69922 -11.49609,-11.49609 -30.20312,-11.49609 -41.69922,0 z m 27.55469,27.55469 c -3.69922,3.69922 -9.71484,3.69922 -13.41406,0 -1.79297,-1.78907 -2.77735,-4.17188 -2.77735,-6.70703 0,-2.53125 0.98828,-4.91407 2.77735,-6.70704 1.85156,-1.84765 4.28125,-2.77343 6.70703,-2.77343 2.42969,0 4.85937,0.92578 6.70703,2.77343 3.69922,3.69922 3.69922,9.71875 0,13.41407 z m 0,0" />
    <path
       style="fill:#000000;fill-opacity:1;stroke:none"
       id="path8"
       data-old_color="#000000"
       class="active-path"
       data-original="#000000"
       d="m 253.25391,205.96094 c 11.49609,-11.5 11.49609,-30.20313 0,-41.69922 -5.57032,-5.57031 -12.97657,-8.63672 -20.85157,-8.63672 -7.875,0 -15.28125,3.06641 -20.84765,8.63672 -11.4961,11.49609 -11.4961,30.19922 0,41.69922 5.75,5.74609 13.29687,8.62109 20.84765,8.62109 7.55078,0 15.10157,-2.875 20.85157,-8.62109 z m -27.5586,-27.5586 c 1.79297,-1.79297 4.17578,-2.77734 6.70703,-2.77734 2.53516,0 4.91797,0.98437 6.70703,2.77734 3.69922,3.69922 3.69922,9.71485 0,13.41407 -3.69531,3.69921 -9.71484,3.69921 -13.41406,0 -3.69531,-3.69922 -3.69531,-9.71485 0,-13.41407 z m 0,0" />
    <path
       style="fill:#000000;fill-opacity:1;stroke:none"
       id="path10"
       data-old_color="#000000"
       class="active-path"
       data-original="#000000"
       d="m 99.460938,231.64062 c -3.90625,-3.90625 -10.238282,-3.90625 -14.144532,0 l -28.414062,28.41407 c -1.875,1.875 -2.929688,4.41797 -2.929688,7.07031 0,2.65234 1.054688,5.19531 2.929688,7.07031 l 126.808596,126.8086 c 1.94922,1.94922 4.51172,2.92578 7.07031,2.92578 2.55859,0 5.11719,-0.97656 7.07031,-2.92578 L 387.44531,211.40625 c 3.90625,-3.90625 3.90625,-10.23828 0,-14.14453 L 260.64062,70.457031 c -1.875,-1.875 -4.41796,-2.929687 -7.07031,-2.929687 -2.65234,0 -5.19531,1.054687 -7.07031,2.929687 L 141.88672,175.07031 c -3.90625,3.90625 -3.90625,10.23828 0,14.14453 3.90234,3.90235 10.23437,3.90235 14.14062,0 L 253.57031,91.671875 366.23437,204.33594 190.78125,379.78906 78.117188,267.125 99.460938,245.78125 c 3.902342,-3.90625 3.906252,-10.23437 0,-14.14063 z m 0,0" />
    <path
       style="fill:#000000;fill-opacity:1;stroke:none"
       id="path12"
       data-old_color="#000000"
       class="active-path"
       data-original="#000000"
       d="m 385.62109,256.97266 c -2.63281,0 -5.21093,1.07031 -7.07031,2.92968 -1.85937,1.85938 -2.92969,4.44141 -2.92969,7.07032 0,2.6289 1.07032,5.21093 2.92969,7.07031 1.85938,1.85937 4.4375,2.92969 7.07031,2.92969 2.62891,0 5.20703,-1.07032 7.07032,-2.92969 1.85937,-1.85938 2.92968,-4.44141 2.92968,-7.07031 0,-2.62891 -1.07031,-5.21094 -2.92968,-7.07032 -1.86328,-1.85937 -4.44141,-2.92968 -7.07032,-2.92968 z m 0,0" />
    <path
       style="fill:#000000;fill-opacity:1;stroke:none"
       id="path14"
       data-old_color="#000000"
       class="active-path"
       data-original="#000000"
       d="m 127.73828,217.49219 c 1.87109,-1.85938 2.93359,-4.42969 2.93359,-7.07032 0,-2.6289 -1.0625,-5.19921 -2.93359,-7.07031 -1.85937,-1.85937 -4.42969,-2.92969 -7.0664,-2.92969 -2.63282,0 -5.21094,1.07032 -7.07032,2.92969 -1.86328,1.85938 -2.92968,4.44141 -2.92968,7.07031 0,2.64063 1.0664,5.21094 2.92968,7.07032 1.86719,1.87109 4.4375,2.92968 7.07032,2.92968 2.63671,0 5.20703,-1.05859 7.0664,-2.92968 z m 0,0" />
  </g>
</svg>
