<?xml version="1.0" encoding="UTF-8" standalone="no"?>
<svg
   xmlns:dc="http://purl.org/dc/elements/1.1/"
   xmlns:cc="http://creativecommons.org/ns#"
   xmlns:rdf="http://www.w3.org/1999/02/22-rdf-syntax-ns#"
   xmlns:svg="http://www.w3.org/2000/svg"
   xmlns="http://www.w3.org/2000/svg"
   id="svg8"
   version="1.1"
   viewBox="0 0 132.29167 145.25625"
   height="549"
   width="500">
  <defs
     id="defs2" />
  <metadata
     id="metadata5">
    <rdf:RDF>
      <cc:Work
         rdf:about="">
        <dc:format>image/svg+xml</dc:format>
        <dc:type
           rdf:resource="http://purl.org/dc/dcmitype/StillImage" />
        <dc:title></dc:title>
      </cc:Work>
    </rdf:RDF>
  </metadata>
  <g
     transform="translate(0,-151.74373)"
     id="layer1">
    <path
       id="path845"
       d="m 96.657954,296.77267 c -0.0887,-0.14351 -2.979211,-0.22586 -7.92761,-0.22586 -8.539311,0 -9.578729,-0.11001 -13.041331,-1.38038 -2.529068,-0.92787 -4.351089,-2.05374 -7.628208,-4.71364 l -2.796061,-2.26944 -4.397991,0.0601 -4.397992,0.0601 -0.17123,1.004 c -0.302038,1.77079 0.0687,1.69237 -8.60039,1.81904 l -7.727638,0.11293 -0.112921,1.63176 c -0.160949,2.3257 -0.120618,2.67055 -1.14168,2.65927 l -18.517248,0.0603 c -20.69190874,0.0674 -20.19661876,0.49818 -20.19661876,-1.47221 v -36.20289 c 0,-2.15296 4.05824996,-2.22102 4.05824996,-0.0111 l 3.99e-5,33.56068 H 19.868824 35.678353 V 266.3967 241.32809 H 19.868824 4.059295 l -9.8e-6,11.51118 c 0,2.12274 -4.05824996,2.31229 -4.05824996,0.0844 l 0.0242,-14.45635 c 0.004,-1.23188 0.29800997,-1.31736 1.44395996,-1.31736 H 19.770724 c 19.509008,0 19.277799,-0.0125 19.760299,1.06441 0.0995,0.22197 0.238799,1.06418 0.309679,1.87156 l 0.128852,1.46797 7.616468,0.11293 c 7.542781,0.11184 7.62142,0.11788 8.12824,0.62497 0.371639,0.37184 0.543341,0.86656 0.627071,1.80674 l 0.1153,1.2947 4.404079,0.0627 c 0,0 2.653044,0.0627 4.404083,0.0627 2.05663,0 2.916359,-0.68016 4.256788,-1.32081 2.68777,-1.2846 5.452682,-3.12073 7.421891,-4.97832 3.301709,-3.11458 5.52395,-7.57405 7.3899,-14.82962 0.72296,-2.81123 0.891979,-3.67234 1.925219,-9.80927 0.680191,-4.03987 0.78735,-4.43064 1.347089,-4.91209 0.713322,-0.61355 1.817402,-0.67073 3.800401,-0.19683 1.860119,0.44454 3.11453,1.11347 4.324001,2.30582 1.892578,1.86578 2.989609,4.35891 3.529769,8.02176 0.483219,3.27677 0.215739,5.47413 -2.02882,16.66664 -1.13267,5.64812 -2.02987,10.47552 -1.99377,10.72757 0.0648,0.4526 0.22049,0.45966 12.600337,0.57118 l 12.53469,0.11292 c 2.27708,0.0205 4.25709,2.64769 4.96928,4.6315 0.545,1.6408 0.4968,4.54777 -0.10052,6.06316 l -0.46748,1.18596 1.02469,0.93252 c 1.7852,1.62462 2.58683,3.46283 2.58683,5.93186 0,2.47407 -0.84265,4.39753 -2.60678,5.95032 -0.55106,0.48505 -1.00194,1.03854 -1.00194,1.22995 0,0.19141 0.20327,0.82221 0.4517,1.40178 0.55331,1.29076 0.60251,3.66161 0.10581,5.0977 -0.74918,2.166 -2.83227,4.18353 -4.89212,4.73818 -0.46248,0.12452 -0.90375,0.32814 -0.9806,0.45247 -0.0768,0.12433 0.0283,0.89614 0.23374,1.71512 1.0694,4.26398 -1.72735,8.57116 -6.01014,9.25598 -0.48866,0.0781 -0.94302,0.23034 -1.00972,0.33825 -0.17442,0.28221 -15.842218,0.25319 -16.017036,-0.0297 z m -6.752392,-5.02502 c -0.528619,-3.6969 -0.321749,-4.99146 1.136841,-7.11407 l 0.814771,-1.18567 -0.81384,-1.18568 c -1.938962,-2.82481 -1.94727,-6.04214 -0.0231,-8.9496 l 0.616849,-0.93209 -0.605729,-0.87405 c -0.902401,-1.30213 -1.48763,-3.04145 -1.48763,-4.42131 0,-1.54809 -0.35011,-1.79793 -1.113959,-0.79491 -4.09484,5.37698 -8.237091,7.85632 -13.834679,8.28073 -1.710502,0.12968 -2.072693,0.003 -2.660436,-0.48232 -0.829395,-0.6855 -0.677836,-2.00833 -0.14238,-2.61274 0.390194,-0.45331 0.944274,-0.75575 2.747526,-0.90917 7.414548,-0.63077 12.577188,-6.70477 15.445729,-18.17232 0.248568,-0.99371 1.54667,-7.29474 2.884668,-14.00228 0,0 2.025287,-8.07034 2.432711,-12.19553 0.110987,-1.12375 0,-2.25844 0,-3.38766 0,-3.81867 -0.437081,-5.79499 -1.65272,-7.47309 -0.77057,-1.06372 -2.602539,-2.13856 -2.98799,-1.75311 -0.138001,0.13798 -0.490119,1.66055 -0.78251,3.38348 -1.759019,10.36519 -3.810069,16.56699 -7.11113,21.50197 -2.4902,3.72278 -6.741678,6.65312 -9.800209,8.55113 -3.058519,1.89803 -4.48864,2.37244 -6.574279,2.42318 l -4.968721,0.1209 -4.968704,0.12089 -0.112929,10.9534 c -0.0621,6.02437 -0.09555,10.61987 -0.104791,10.80564 -0.08395,1.68778 -3.83391,1.54928 -3.847589,-0.001 l -0.112919,-12.7986 -0.11293,-12.79861 h -6.09796 -6.097961 v 20.66466 20.66466 h 6.097961 6.09796 l 0.11293,-5.02018 0.112919,-5.0202 c 0.0308,-1.36927 3.909988,-1.76314 3.927332,-0.44574 0.02799,2.12593 0.137977,7.32432 0.137977,7.32432 l 5.090706,0.11291 5.090707,0.11293 3.547721,2.85062 c 5.970969,4.79774 8.073711,5.53008 16.050379,5.58994 l 3.806709,0.0286 z m 23.510468,-6.26716 h -8.57074 c -9.439898,0 -9.609887,0.0225 -10.593288,1.40353 -0.51308,0.72054 -0.567145,2.21251 -0.338783,3.12234 0.197078,0.7852 1.012198,2.02642 1.830134,2.38751 0.545044,0.24062 2.483191,0.29329 9.288947,0.25238 l 8.60019,-0.0517 c 4.33839,-0.0261 4.18209,-7.11406 -0.21646,-7.11406 z m 6.53861,-11.00805 -12.65516,-0.2337 c -11.162798,0.0612 -11.412506,0.0723 -12.036727,0.53497 -1.23041,0.91191 -1.703351,1.87457 -1.60591,3.26873 0.10214,1.46145 0.69654,2.44777 1.80821,3.00048 0.661051,0.32867 1.99897,0.36262 12.372497,0.31399 l 11.63129,-0.0545 c 3.32121,-0.0156 4.0001,-6.76507 0.4858,-6.82997 z m 2.56987,-11.35043 h -13.45263 c -14.759008,0 -14.407107,-0.0314 -15.120246,1.34766 -0.469321,0.90752 -0.454991,3.47386 0.02389,4.28456 0.833339,1.41069 0.23191,1.35632 15.074356,1.36291 l 13.52113,0.006 c 3.58829,0.002 3.25622,-7.00114 -0.0465,-7.00114 z m -2.5071,-4.46075 c 1.08812,-0.55484 1.64211,-1.41636 1.7706,-2.75349 0.1624,-1.69012 -0.41862,-3.05994 -1.54072,-3.63237 -0.83648,-0.42673 -1.37339,-0.44556 -12.70611,-0.44556 H 95.708422 l -0.764119,0.51493 c -1.039979,0.70082 -1.328229,1.3718 -1.33115,3.09857 -0.0021,1.0776 0.118591,1.66656 0.45281,2.21475 0.84841,1.3915 0.73828,1.3802 13.545727,1.38954 10.63785,0.008 11.69744,-0.0253 12.40572,-0.38637 z m -94.728176,27.05422 c -1.34788,-0.56117 -2.31561,-2.51888 -1.89577,-3.83514 1.00885,-3.16295 5.494959,-3.16374 6.18962,-8e-4 0.566549,2.57945 -1.937999,4.81707 -4.29385,3.83624 z M 9.7055549,207.01991 c -0.46765,-0.20785 -1.66516,-1.34979 -2.02247,-2.36248 -0.35732,-1.01268 -0.2476801,-1.51536 0.004,-2.92953 0.2519501,-1.41417 0.54477,-3.12368 0.7845301,-4.55213 0.2397599,-1.42846 0.4982797,-2.88545 0.5744797,-3.23775 0.1275102,-0.58946 -0.1673098,-0.94968 -3.6967596,-4.51686 -2.1094301,-2.13197 -3.8552498,-3.91529 -4.0875298,-4.36961 -0.23228,-0.45434 -0.34909009,-2.39733 0.002,-3.07857 0.35079,-0.68126 1.22526,-1.55841 1.8040399,-1.8596 0.57878,-0.30121 5.6803798,-1.12845 9.6260188,-1.62113 0.52593,-0.0656 1.08492,-0.27174 1.24218,-0.45791 0.15726,-0.18619 1.35307,-2.43441 2.65736,-4.99606 2.28525,-4.48828 2.40836,-4.67657 3.38775,-5.18179 0.81142,-0.41856 1.25507,-0.50156 2.2005,-0.4117 1.98066,0.18827 2.294309,0.55734 4.902238,5.76851 1.286531,2.57075 2.476061,4.78158 2.64337,4.91293 0.16733,0.13133 1.47301,0.40495 2.901511,0.60799 5.786329,0.82253 7.339348,1.098 7.93941,1.40829 1.591368,0.82291 2.420707,2.63131 1.96691,4.28893 -0.192402,0.7028 -1.037172,1.691 -4.058322,4.74738 -4.352819,4.40354 -4.073369,3.75605 -3.36645,7.80026 1.191842,6.81828 1.190141,6.67381 0.895631,7.59563 -0.294511,0.92181 -0.93235,1.85249 -2.06733,2.44541 -1.13497,0.59292 -2.226059,0.46695 -7.09531,-2.05277 -2.520398,-1.30423 -4.801248,-2.37134 -5.068558,-2.37134 -0.2673,0 -1.72031,0.6515 -3.22892,1.44776 -5.72745,3.02307 -6.54488,3.29208 -7.25992,3.28563 -0.71504,-0.007 -1.3946191,-0.22669 -1.580949,-0.30949 -0.1863201,-0.0828 0.468279,0.20783 6.085e-4,0 z m 7.0391991,-6.48168 c 3.95205,-2.0354 4.53028,-2.27072 5.31972,-2.16484 0.79182,0.10621 2.35684,0.85086 7.787429,3.70537 2.460741,1.29345 2.415831,1.5375 1.08939,-5.91929 -0.792721,-4.45644 -0.82877,-4.3688 3.51195,-8.53939 3.150999,-3.02751 3.78292,-3.86764 3.08837,-4.10594 -0.155271,-0.0533 -1.75599,-0.30517 -3.557141,-0.55977 -5.398079,-0.76303 -5.988648,-0.89888 -6.780127,-1.5596 -0.493782,-0.41221 -1.424351,-1.98053 -2.901951,-4.89073 -1.36614,-2.69072 -2.30106,-4.28396 -2.51385,-4.28396 -0.21425,0 -1.08584,1.51062 -2.37142,4.11011 -1.11796,2.26055 -2.33271,4.42181 -2.69945,4.80277 -0.82506,0.85709 -1.2772,0.97837 -6.33456,1.69927 -4.6043491,0.65632 -4.6299391,0.66239 -4.6299391,1.09904 0,0.17613 1.5135199,1.81281 3.3633699,3.63707 2.5326492,2.49757 3.4574392,3.56311 3.7442092,4.31399 0.41783,1.09402 0.49021,0.37889 -0.78165,7.72217 -0.46026,2.65733 -0.45761,3.21735 0.0152,3.21735 0.11907,0 2.21178,-1.02763 4.650479,-2.28362 z m 82.596678,6.46722 c -0.38735,-0.1767 -0.967819,-0.6345 -1.28995,-1.01732 -1.062688,-1.26288 -1.097658,-1.89005 -0.35076,-6.28959 0.372631,-2.19491 0.76201,-4.54972 0.865301,-5.2329 l 0.187791,-1.24213 -3.805341,-3.83932 c -4.393301,-4.43256 -4.637159,-5.45961 -4.161081,-6.89288 0.47607,-1.43327 1.391121,-2.10215 2.039681,-2.43435 0.648549,-0.33219 5.33704,-1.01817 9.364207,-1.55348 0.55899,-0.0744 1.15324,-0.24333 1.32056,-0.37557 0.16732,-0.13228 1.35685,-2.34386 2.64337,-4.91461 2.74827,-5.49158 2.97385,-5.73592 5.29594,-5.73592 2.3221,0 2.54767,0.24434 5.29593,5.73592 1.28654,2.57075 2.47606,4.78233 2.64338,4.91461 0.16733,0.13224 0.76157,0.30127 1.32055,0.37557 4.4974,0.59781 9.00066,1.37029 9.50323,1.63017 0.68094,0.35212 1.45497,1.15911 1.79069,1.9844 0.31745,0.78044 0.40162,1.74002 0.0974,2.52569 -0.59167,1.52794 -1.42904,1.96045 -4.0566,4.62752 l -3.89372,3.95225 0.18604,1.24213 c 0.10233,0.68318 0.49092,3.03799 0.86355,5.2329 0.74655,4.39744 0.71169,5.02699 -0.34804,6.28636 -0.32064,0.38105 -0.95194,0.8497 -1.40288,1.04143 -1.49013,0.63358 -2.48173,0.33724 -7.17616,-2.14457 -2.37797,-1.25716 -4.54848,-2.28575 -4.82335,-2.28575 -0.27487,0 -2.44538,1.0296 -4.82334,2.288 -4.66494,2.46863 -5.80054,2.79927 -7.286377,2.12144 z m 7.005908,-6.44203 c 2.80987,-1.44445 4.64815,-2.25844 5.10045,-2.25844 0.45262,0 2.32679,0.83069 5.20683,2.30782 3.3034,1.69426 4.56647,2.24101 4.75095,2.05654 0.18448,-0.18447 0.0371,-1.50694 -0.55424,-4.97433 -0.66143,-3.8781 -0.76384,-4.88236 -0.57243,-5.61357 0.18802,-0.71827 0.9076,-1.55674 3.72037,-4.33503 3.30192,-3.26145 3.86295,-4.00281 3.20495,-4.23505 -0.15528,-0.0548 -2.11171,-0.36116 -4.34762,-0.68077 -2.23593,-0.31962 -4.31939,-0.64065 -4.62994,-0.71337 -1.38135,-0.32354 -1.9946,-1.13066 -4.18684,-5.51038 -1.70157,-3.39947 -2.23117,-4.27383 -2.58867,-4.27383 -0.35749,0 -0.8871,0.87436 -2.58867,4.27383 -2.19224,4.37972 -2.80549,5.18684 -4.18683,5.51038 -0.31055,0.0727 -2.39402,0.39375 -4.62995,0.71337 -2.235907,0.31961 -4.192347,0.62597 -4.347618,0.68077 -0.658,0.23224 -0.097,0.9736 3.204951,4.23505 2.815427,2.7809 3.532257,3.61637 3.720797,4.33657 0.19177,0.73254 0.092,1.71989 -0.55816,5.52156 -0.76847,4.49371 -0.81547,5.21731 -0.33886,5.21731 0.125,0 2.20423,-1.0163 4.62053,-2.25843 z m -51.501477,-9.04209 c -1.044041,0 -2.261391,-1.77994 -2.4374,-2.84491 -0.0933,-0.56422 0.106598,-2.31147 0.564848,-4.93832 0.390041,-2.23586 0.762662,-4.55598 0.82804,-5.15583 l 0.118862,-1.09063 -3.964289,-3.99084 c -3.372171,-3.39474 -3.988293,-4.12058 -4.124982,-4.85952 -0.33125,-1.79068 0.728232,-3.65267 2.4301,-4.27084 0.53258,-0.19345 3.011779,-0.63131 5.509321,-0.97303 2.497548,-0.34171 4.69604,-0.73467 4.88555,-0.87324 0.1895,-0.13856 1.332479,-2.23128 2.539942,-4.65051 1.207471,-2.41921 2.413669,-4.63688 2.680449,-4.92817 1.19544,-1.30526 3.07286,-1.57392 4.71629,-0.67489 0.910971,0.49834 1.092182,0.78685 3.33474,5.30927 2.646301,5.3366 2.428121,5.10655 5.194559,5.47705 4.85158,0.64973 7.570182,1.07791 8.314351,1.46273 0.74417,0.38481 1.827858,1.78311 1.96523,2.40855 0.137369,0.62543 0.118369,0.9638 0.008,1.75569 -0.110688,0.7919 -0.323439,1.22383 -4.113778,4.92324 l -3.96647,3.87131 0.483579,2.90399 c 0.26597,1.59718 0.640991,3.76783 0.833361,4.82365 0.441021,2.42034 0.33315,3.99285 -0.33859,4.93619 -0.729469,1.02442 -1.721831,1.47991 -3.18494,1.46191 -1.127699,-0.0138 -1.64478,-0.22876 -5.61073,-2.33155 -2.40269,-1.27395 -4.590288,-2.31626 -4.86132,-2.31626 -0.271028,0 -2.436788,1.02958 -4.812818,2.28795 -4.480034,2.37271 -5.479103,2.27701 -6.991165,2.27701 z m 21.927341,-4.49248 c 0.0714,-0.11539 -0.0217,-1.05546 -0.206589,-2.08905 -1.14894,-6.42077 -1.288132,-7.56694 -1.03369,-8.51185 0.207859,-0.77191 0.860628,-1.53191 3.743499,-4.35842 3.1252,-3.0641 4.03529,-4.25338 3.254859,-4.25338 -0.13028,0 -2.086718,-0.2614 -4.34762,-0.58088 -4.459369,-0.63014 -5.714719,-0.98049 -6.522199,-1.82026 -0.28853,-0.30008 -1.439298,-2.39791 -2.557261,-4.66185 -1.323488,-2.68015 -2.168718,-4.14138 -2.422668,-4.18827 -0.30475,-0.0563 -0.856001,0.8878 -2.5215,4.31835 -2.22273,4.57834 -2.554081,5.01543 -4.202774,5.54422 -0.434758,0.13943 -2.659438,0.51168 -4.943729,0.82723 -4.28444,0.59183 -4.541988,0.65138 -4.541988,1.0501 0,0.12986 1.562989,1.74997 3.473317,3.60022 1.91031,1.85026 3.600712,3.67168 3.75643,4.04763 0.3586,0.86567 0.21055,2.72518 -0.54787,6.88208 -0.719608,3.94418 -0.725138,4.17811 -0.0988,4.17811 0.266819,0 2.27407,-0.93597 4.460552,-2.07993 5.363869,-2.80635 5.072729,-2.80947 10.52508,0.11276 2.23592,1.19835 4.186349,2.18203 4.33428,2.18593 0.14795,0.004 0.327348,-0.0873 0.398658,-0.20274 z"
       style="fill:#000000;fill-opacity:1;stroke:none;stroke-width:0.22584683" />
  </g>
</svg>
